<svg width="31" height="33" viewBox="0 0 31 33" fill="none" xmlns="http://www.w3.org/2000/svg">
<path fill-rule="evenodd" clip-rule="evenodd" d="M3.94364 0.000103277C3.93364 0.0101004 3.92546 2.04451 3.92546 4.52098V9.02378H8.45734C12.8531 9.02378 12.9875 9.02178 12.9302 8.95852C12.8978 8.92262 12.0966 8.12049 11.1497 7.17595C10.2028 6.2314 9.42815 5.44763 9.42815 5.43417C9.42815 5.41273 10.1518 5.04611 10.4932 4.8946C10.7787 4.76791 11.1537 4.61405 11.2032 4.60314C11.2325 4.59678 11.2604 4.58833 11.2653 4.58442C11.2703 4.58042 11.2862 4.57388 11.3008 4.5697C11.3155 4.56561 11.3514 4.5527 11.3807 4.54098C11.41 4.52934 11.5777 4.47663 11.7535 4.42383C11.9292 4.37112 12.1375 4.3075 12.2163 4.28251C12.361 4.23661 12.8356 4.13146 13.0315 4.10183C13.0901 4.09302 13.1612 4.07775 13.1895 4.06802C13.592 3.92979 15.9439 3.81782 16.5284 3.90916C16.6553 3.92897 16.839 3.9526 16.9366 3.96169C17.115 3.97841 17.4991 4.03667 17.6644 4.07229C17.9425 4.1321 18.126 4.17072 18.268 4.19917C18.4473 4.23516 18.7146 4.31123 19.0312 4.41638C19.1484 4.45528 19.2602 4.49072 19.2797 4.49517C19.4483 4.53316 19.657 4.60696 19.8542 4.6982C19.9835 4.75801 20.1076 4.80972 20.1302 4.81299C20.239 4.82899 21.4632 5.44072 21.5972 5.54614C21.6458 5.58431 21.701 5.61567 21.7198 5.61567C21.7386 5.61567 21.8787 5.70355 22.0311 5.81088C22.1835 5.91831 22.3188 6.00619 22.3319 6.00619C22.345 6.00619 22.3779 6.0261 22.4051 6.05054C22.4834 6.1207 22.537 6.16178 22.6701 6.25339C22.7384 6.30038 22.8455 6.37981 22.9079 6.42989C22.9704 6.47996 23.0626 6.55285 23.1127 6.59193C23.1628 6.63101 23.2714 6.72426 23.3541 6.79924C23.4368 6.87421 23.5763 6.99291 23.6641 7.06307C23.848 7.20975 24.3025 7.66835 24.5871 7.99444C24.6946 8.1174 24.8184 8.25627 24.8623 8.30299C24.9062 8.3497 24.9421 8.39787 24.9421 8.40995C24.9421 8.42213 24.9664 8.4573 24.996 8.4883C25.0258 8.5192 25.1296 8.64834 25.2271 8.77521C25.3245 8.90218 25.4295 9.03796 25.4605 9.07703C25.4915 9.11602 25.5339 9.18391 25.5547 9.2279C25.5755 9.2718 25.6059 9.30779 25.6224 9.30779C25.6388 9.30779 25.6522 9.33169 25.6522 9.36104C25.6522 9.39031 25.6681 9.4143 25.6877 9.4143C25.7072 9.4143 25.7232 9.4382 25.7232 9.46756C25.7232 9.49682 25.7363 9.52082 25.7524 9.52082C25.7684 9.52082 25.817 9.58871 25.8602 9.67168C25.9476 9.83927 26.0157 9.95542 26.0427 9.98232C26.0862 10.0258 26.6184 11.0758 26.6048 11.0911C26.6 11.0963 26.6226 11.1485 26.6547 11.2071C26.7157 11.3178 26.7445 11.3853 26.9204 11.8283C27.0578 12.1743 27.2491 12.7971 27.4057 13.4082C27.4869 13.7249 27.6317 14.6081 27.659 14.9524C27.6721 15.1184 27.6887 15.3022 27.696 15.3607C27.7158 15.5217 27.7166 16.8695 27.6969 17.0115C27.6874 17.0798 27.6706 17.2556 27.6596 17.402C27.6485 17.5485 27.6327 17.7082 27.6244 17.7571C27.616 17.8059 27.5749 18.0535 27.5331 18.3073C27.4912 18.5611 27.4245 18.8887 27.3847 19.0351C27.3449 19.1815 27.2977 19.3632 27.2799 19.4387C27.2523 19.5556 27.0022 20.3277 26.9392 20.4907C26.9278 20.5199 26.9158 20.5518 26.9125 20.5616C26.9091 20.5714 26.8944 20.6064 26.8798 20.6394C26.8297 20.7528 26.8774 20.8237 27.0765 20.9323C27.1862 20.992 27.298 21.0583 27.325 21.0797C27.3519 21.1009 27.4699 21.1728 27.587 21.2394C27.7042 21.306 27.8319 21.3794 27.871 21.4027C27.91 21.4258 27.9899 21.4698 28.0485 21.5002C28.107 21.5306 28.2029 21.587 28.2615 21.6254C28.3201 21.664 28.416 21.719 28.4745 21.7478C28.5928 21.8061 28.7843 21.9187 28.8118 21.9461C28.8392 21.9736 29.0307 22.0862 29.149 22.1445C29.2076 22.1734 29.3034 22.2272 29.362 22.2642C29.5025 22.3529 29.4976 22.354 29.5506 22.2213C29.576 22.1578 29.6191 22.058 29.6463 21.9994C29.7191 21.8429 29.945 21.2418 29.9643 21.1529C29.9735 21.1108 30.0146 20.9805 30.0557 20.8634C30.0967 20.7462 30.1358 20.6264 30.1426 20.5972C30.1493 20.5678 30.2022 20.3681 30.2601 20.1534C30.318 19.9385 30.3733 19.7229 30.383 19.6741C30.3927 19.6253 30.4329 19.4336 30.4725 19.2481C30.5522 18.8741 30.644 18.3144 30.6793 17.9878C30.6919 17.8707 30.7081 17.7429 30.7152 17.7039C30.7902 17.2926 30.7899 14.7651 30.7148 14.6381C30.7075 14.6254 30.6907 14.5081 30.6776 14.3772C30.6645 14.2464 30.6477 14.1026 30.6403 14.0577C30.6329 14.0129 30.6179 13.9203 30.607 13.8519C30.596 13.7836 30.563 13.5918 30.5335 13.4259C30.5042 13.2599 30.4728 13.0798 30.464 13.0257C30.4552 12.9716 30.4395 12.9135 30.4291 12.8967C30.4187 12.8799 30.4011 12.8044 30.3899 12.7289C30.3415 12.4012 29.9362 11.0876 29.734 10.6036C29.7178 10.5645 29.6617 10.4218 29.6094 10.2866C29.5572 10.1513 29.501 10.0155 29.4846 9.98477C29.4682 9.95415 29.3301 9.67623 29.1776 9.36731C28.8831 8.77031 28.8158 8.64298 28.7048 8.47348C28.6664 8.41495 28.6152 8.32707 28.591 8.27826C28.5667 8.22946 28.5381 8.18147 28.5272 8.17175C28.5164 8.16193 28.4288 8.02616 28.3325 7.86993C28.1842 7.62909 28.0127 7.37862 27.8943 7.23002C27.8784 7.21003 27.8354 7.14605 27.7988 7.08806C27.7621 7.02999 27.6836 6.92356 27.6241 6.85158C27.5647 6.77961 27.4441 6.63019 27.3563 6.5195C26.9452 6.00192 26.2084 5.22769 25.6684 4.74583C25.5371 4.62868 25.4087 4.51262 25.3831 4.4879C25.3575 4.46318 25.2598 4.38502 25.166 4.31432C25.0722 4.24352 24.9694 4.15991 24.9376 4.12846C24.8327 4.02476 24.7147 3.93461 24.4274 3.73866C24.2712 3.63215 24.1354 3.53481 24.1256 3.52236C24.1017 3.49173 23.7716 3.27262 23.7495 3.27252C23.7398 3.27252 23.6168 3.19509 23.4761 3.1003C22.9026 2.71414 21.5966 2.06633 20.8595 1.80258C20.6545 1.72924 20.4388 1.64881 20.3803 1.62382C20.3216 1.59882 20.0661 1.52003 19.8123 1.44869C19.5584 1.37743 19.2709 1.29573 19.1733 1.26728C18.8087 1.16095 17.7451 0.96528 17.2384 0.911205C17.1115 0.897754 16.9798 0.881759 16.9458 0.87576C16.637 0.821321 14.4953 0.791694 14.2632 0.838589C14.2182 0.847768 14.0585 0.864854 13.9082 0.876669C13.758 0.888484 13.5951 0.904116 13.5463 0.911386C13.4974 0.918657 13.3298 0.942741 13.1735 0.964916C12.323 1.08552 11.3546 1.31518 10.5465 1.58801C9.88547 1.81104 9.79141 1.84603 9.54103 1.96181C9.4177 2.01889 9.30737 2.06551 9.29601 2.06551C9.25093 2.06551 8.46797 2.44813 8.0969 2.65143C7.94067 2.73704 7.7649 2.83156 7.70637 2.86164C7.58832 2.92199 7.52861 2.95961 7.31885 3.10566L7.17607 3.20509L5.56899 1.59346C4.68506 0.707173 3.95364 -0.00989384 3.94364 0.000103277ZM1.10446 10.4717C0.958953 10.8293 0.951592 10.8498 0.751831 11.4556C0.606236 11.8972 0.57161 12.0177 0.425561 12.5917C0.415564 12.6306 0.401114 12.7055 0.393389 12.758C0.385664 12.8105 0.360761 12.9223 0.338132 13.0064C0.293145 13.1732 0.2896 13.1906 0.251066 13.4259C0.236706 13.5138 0.218984 13.6176 0.211532 13.6566C0.0151339 14.6969 -0.0729318 17.2389 0.0717538 17.694C0.0796606 17.7189 0.0956561 17.8431 0.107289 17.97C0.118831 18.097 0.136917 18.2727 0.147368 18.3605C0.165909 18.516 0.356126 19.5316 0.400023 19.7096C0.41211 19.7584 0.425743 19.8164 0.430378 19.8384C0.459915 19.9789 0.712388 20.8182 0.818721 21.1297C0.888791 21.3347 0.951046 21.5184 0.957135 21.5379C0.97404 21.5924 1.01839 21.7007 1.09064 21.8644C1.12681 21.9462 1.15635 22.0346 1.15635 22.0606C1.15635 22.0866 1.17753 22.1394 1.20334 22.1779C1.22915 22.2164 1.27168 22.3039 1.29795 22.3722C1.37774 22.5801 1.65911 23.1627 1.74809 23.3041C1.79417 23.3773 1.82443 23.4373 1.81552 23.4373C1.80144 23.4373 1.85906 23.5449 2.0819 23.9342C2.1098 23.983 2.14243 24.031 2.15434 24.0407C2.16624 24.0505 2.20423 24.1144 2.23877 24.1828C2.27339 24.2511 2.35546 24.381 2.42126 24.4715C2.48706 24.562 2.54095 24.6538 2.54095 24.6756C2.54095 24.6974 2.55695 24.7153 2.5764 24.7153C2.59594 24.7153 2.61193 24.7364 2.61193 24.7623C2.61193 24.7882 2.65183 24.8469 2.70072 24.8928C2.74953 24.9386 2.78943 24.9903 2.78943 25.0076C2.78943 25.0369 2.85886 25.1365 3.15205 25.5278C3.21621 25.6134 3.30464 25.7161 3.34854 25.756C3.39253 25.7959 3.42842 25.8487 3.42842 25.8735C3.42842 25.8981 3.45642 25.9392 3.49059 25.9646C3.52476 25.9902 3.59619 26.0692 3.64927 26.1404C3.86439 26.4286 4.63989 27.226 5.09467 27.6263C5.23872 27.7533 5.39686 27.8934 5.44602 27.9379C5.49519 27.9823 5.58217 28.0542 5.63933 28.0976C5.6965 28.1411 5.80156 28.2286 5.87281 28.292C5.94406 28.3556 6.03022 28.4166 6.06439 28.4276C6.09856 28.4386 6.12656 28.4618 6.12656 28.4791C6.12656 28.4964 6.1839 28.5378 6.25406 28.5711C6.32423 28.6043 6.38984 28.653 6.39984 28.6792C6.40993 28.7055 6.43656 28.7269 6.4591 28.7269C6.48164 28.7269 6.54062 28.7628 6.59033 28.8068C6.63995 28.8507 6.7053 28.9026 6.73547 28.9221C6.76574 28.9417 6.86071 29.0052 6.94659 29.0635C7.17334 29.217 7.23742 29.2556 7.30694 29.2808C7.34112 29.2931 7.36911 29.3162 7.36911 29.3321C7.36911 29.3481 7.40501 29.3726 7.44899 29.3865C7.49289 29.4004 7.59032 29.4506 7.66548 29.4981C8.11035 29.7788 8.61684 30.0297 9.66426 30.4884C9.72579 30.5154 9.78732 30.5374 9.80095 30.5374C9.81449 30.5374 9.87602 30.5607 9.93755 30.5889C10.037 30.6347 10.5815 30.8183 11.0789 30.9736C11.2505 31.0273 11.9495 31.2032 12.1038 31.2317C12.1455 31.2393 12.2913 31.2692 12.428 31.298C12.796 31.3758 13.5572 31.4884 13.9013 31.5161C14.0673 31.5295 14.2589 31.5461 14.3273 31.5531C14.5737 31.5783 16.128 31.5776 16.4751 31.5522C17.0964 31.5068 18.1519 31.3519 18.6762 31.2294C18.7153 31.2203 18.8111 31.1981 18.8892 31.1801C19.0541 31.1422 19.6254 30.9893 19.8832 30.914C20.2126 30.818 20.7711 30.6246 20.9128 30.5577C20.9714 30.5299 21.1071 30.4721 21.2146 30.4293C21.816 30.1887 22.6929 29.7489 23.2506 29.4081C23.3844 29.3263 23.5069 29.2594 23.5227 29.2594C23.5386 29.2594 23.5578 29.2411 23.5653 29.2187C23.5727 29.1963 24.3046 29.9069 25.1915 30.7976C26.0785 31.6883 26.8167 32.4047 26.8319 32.3895C26.847 32.3743 26.8554 30.3419 26.8505 27.873L26.8415 23.384L22.324 23.3749C19.8393 23.37 17.8065 23.3781 17.8065 23.393C17.8065 23.4079 18.6032 24.2143 19.577 25.1851L21.3477 26.9503L21.1835 27.0484C21.0026 27.1565 20.6412 27.3403 20.6071 27.3415C20.5952 27.342 20.4434 27.4079 20.2698 27.4882C20.0963 27.5683 19.9505 27.6327 19.9458 27.6312C19.9412 27.6297 19.8613 27.6618 19.7684 27.7024C19.5983 27.7767 19.0522 27.965 18.8537 28.0179C18.7951 28.0335 18.652 28.0722 18.5358 28.104C17.2644 28.4515 14.9957 28.6374 14.1143 28.4664C14.0655 28.4569 13.9457 28.4386 13.8481 28.4257C13.5062 28.3806 13.4205 28.3679 13.2268 28.3344C12.9615 28.2885 12.8765 28.2715 12.8068 28.2505C12.7742 28.2407 12.7076 28.2242 12.6588 28.2139C12.0816 28.0921 11.2723 27.8383 10.817 27.6364C10.7511 27.6072 10.6792 27.5803 10.6573 27.5768C10.5857 27.5653 9.53285 27.059 9.49913 27.02C9.48941 27.0088 9.39352 26.9536 9.28619 26.8974C9.17877 26.8414 9.06689 26.7763 9.03763 26.7529C9.00836 26.7295 8.90448 26.6667 8.80687 26.6133C8.70927 26.56 8.56276 26.4626 8.48142 26.3969C8.39999 26.3311 8.32429 26.2774 8.3132 26.2774C8.29439 26.2774 7.87042 25.9666 7.83061 25.9236C7.82079 25.9132 7.741 25.8495 7.65312 25.7822C7.44536 25.6232 7.34321 25.5322 6.85189 25.0692C6.55134 24.7859 6.15936 24.3682 5.97024 24.1295C5.8929 24.0318 5.82046 23.944 5.80928 23.9342C5.79801 23.9245 5.71776 23.8206 5.63088 23.7035C5.54391 23.5863 5.43721 23.4519 5.39377 23.4046C5.35032 23.3575 5.28616 23.2656 5.25108 23.2005C5.216 23.1354 5.17501 23.0822 5.15993 23.0822C5.14484 23.0822 5.13248 23.0613 5.13248 23.0357C5.13248 23.01 5.10385 22.9581 5.06886 22.9202C4.87455 22.71 3.94718 20.9453 3.94264 20.7772C3.94237 20.766 3.92946 20.7369 3.91401 20.7126C3.89856 20.6883 3.87929 20.6403 3.87121 20.6062C3.86303 20.5719 3.79841 20.3761 3.72761 20.1711C3.65672 19.9661 3.58574 19.7504 3.56993 19.6919C3.55411 19.6333 3.51449 19.4895 3.48186 19.3723C3.44924 19.2552 3.41552 19.1194 3.40688 19.0706C3.39816 19.0218 3.37644 18.9419 3.35853 18.8931C3.32345 18.7974 3.26947 18.5178 3.23293 18.2419C3.22039 18.1474 3.20467 18.0417 3.19804 18.007C3.18404 17.9346 3.12024 17.3737 3.09216 17.0766C2.97964 15.8876 3.13851 14.3181 3.50467 12.9999C3.58329 12.7168 3.653 12.4612 3.65954 12.4319C3.66617 12.4025 3.67472 12.3746 3.67872 12.3697C3.68262 12.3648 3.68926 12.3489 3.69335 12.3343C3.69744 12.3196 3.70971 12.2837 3.72052 12.2544C3.8752 11.8351 3.87902 11.8096 3.79232 11.7796C3.75815 11.7678 3.68226 11.7265 3.62373 11.6877C3.56511 11.6489 3.43851 11.5751 3.34227 11.5237C3.24602 11.4723 3.14496 11.4079 3.11779 11.3807C3.09061 11.3536 3.04553 11.3313 3.01763 11.3313C2.98973 11.3313 2.96692 11.3172 2.96692 11.2999C2.96692 11.2828 2.93902 11.259 2.90485 11.2471C2.87068 11.2353 2.79479 11.1938 2.73617 11.1548C2.67764 11.1158 2.59775 11.0675 2.55867 11.0473C2.51959 11.0272 2.43971 10.9792 2.38118 10.9407C2.32256 10.9021 2.25067 10.8585 2.22141 10.8436C2.10826 10.7861 1.63294 10.5027 1.58241 10.4626C1.55315 10.4394 1.45545 10.3783 1.36529 10.3269L1.20143 10.2334L1.10446 10.4717Z" fill="#DF2F2F"/>
<path fill-rule="evenodd" clip-rule="evenodd" d="M4.36999 0.396872C4.58411 0.611628 4.76724 0.787395 4.77705 0.787395C4.78678 0.787395 4.61964 0.611628 4.40552 0.396872C4.1914 0.182115 4.00818 0.00634766 3.99846 0.00634766C3.98864 0.00634766 4.15587 0.182115 4.36999 0.396872ZM6.10958 2.13646C6.69504 2.7222 7.18209 3.20143 7.1919 3.20143C7.20163 3.20143 6.73058 2.7222 6.14502 2.13646C5.55955 1.55063 5.07242 1.0714 5.0627 1.0714C5.05297 1.0714 5.52402 1.55063 6.10958 2.13646ZM9.42889 5.42342C9.42889 5.44133 10.1278 6.15094 10.9821 7.00024L12.5353 8.54434L10.991 6.9837C10.1416 6.1254 9.44262 5.41579 9.4378 5.40688C9.43289 5.39798 9.42889 5.40543 9.42889 5.42342ZM12.5885 8.60869C12.5885 8.61487 12.6404 8.66676 12.7039 8.72411L12.8193 8.82835L12.7149 8.71302C12.6178 8.60542 12.5885 8.58133 12.5885 8.60869Z" fill="#DF2F2F"/>
<path fill-rule="evenodd" clip-rule="evenodd" d="M26.1855 5.23624C26.1855 5.24233 26.2374 5.29432 26.301 5.35166L26.4163 5.45591L26.3121 5.34048C26.2148 5.23297 26.1855 5.2088 26.1855 5.23624Z" fill="#DF2F2F"/>
<path fill-rule="evenodd" clip-rule="evenodd" d="M26.1855 5.23624C26.1855 5.24233 26.2374 5.29432 26.301 5.35166L26.4163 5.45591L26.3121 5.34048C26.2148 5.23297 26.1855 5.2088 26.1855 5.23624Z" fill="#DF2F2F"/>
<path fill-rule="evenodd" clip-rule="evenodd" d="M26.1855 5.23624C26.1855 5.24233 26.2374 5.29432 26.301 5.35166L26.4163 5.45591L26.3121 5.34048C26.2148 5.23297 26.1855 5.2088 26.1855 5.23624Z" fill="#DF2F2F"/>
<path fill-rule="evenodd" clip-rule="evenodd" d="M26.1855 5.23624C26.1855 5.24233 26.2374 5.29432 26.301 5.35166L26.4163 5.45591L26.3121 5.34048C26.2148 5.23297 26.1855 5.2088 26.1855 5.23624Z" fill="#DF2F2F"/>
<path fill-rule="evenodd" clip-rule="evenodd" d="M26.1855 5.23624C26.1855 5.24233 26.2374 5.29432 26.301 5.35166L26.4163 5.45591L26.3121 5.34048C26.2148 5.23297 26.1855 5.2088 26.1855 5.23624Z" fill="#DF2F2F"/>
<path fill-rule="evenodd" clip-rule="evenodd" d="M26.1855 5.23624C26.1855 5.24233 26.2374 5.29432 26.301 5.35166L26.4163 5.45591L26.3121 5.34048C26.2148 5.23297 26.1855 5.2088 26.1855 5.23624Z" fill="#DF2F2F"/>
<path fill-rule="evenodd" clip-rule="evenodd" d="M26.1855 5.23624C26.1855 5.24233 26.2374 5.29432 26.301 5.35166L26.4163 5.45591L26.3121 5.34048C26.2148 5.23297 26.1855 5.2088 26.1855 5.23624Z" fill="#DF2F2F"/>
</svg>
